<svg width="67" height="33" viewBox="0 0 67 33" fill="none" xmlns="http://www.w3.org/2000/svg">
<path d="M12.672 22.928V11.536C12.672 7.024 10.88 4.88 6.688 4.88C2.496 4.88 0.64 7.024 0.64 11.536V12.176H5.44V11.536C5.44 10 5.76 9.36 6.688 9.36C7.552 9.36 7.872 9.68 7.872 10.864C7.84 14.256 0.32 13.552 0.32 20.912C0.32 24.688 2.208 26.32 4.352 26.32C6.176 26.32 7.136 25.488 7.872 23.664C7.872 24.24 8.032 25.52 8.832 26H12.992C12.672 24.976 12.672 24.272 12.672 22.928ZM7.872 21.04C7.552 21.424 7.104 21.84 6.464 21.84C5.664 21.84 5.12 21.296 5.12 20.048C5.12 18.096 6.88 17.456 7.872 16.016V21.04ZM14.2725 0.4V26H19.0725V0.4H14.2725ZM32.702 22.928V11.536C32.702 7.024 30.91 4.88 26.718 4.88C22.526 4.88 20.67 7.024 20.67 11.536V12.176H25.47V11.536C25.47 10 25.79 9.36 26.718 9.36C27.582 9.36 27.902 9.68 27.902 10.864C27.87 14.256 20.35 13.552 20.35 20.912C20.35 24.688 22.238 26.32 24.382 26.32C26.206 26.32 27.166 25.488 27.902 23.664C27.902 24.24 28.062 25.52 28.862 26H33.022C32.702 24.976 32.702 24.272 32.702 22.928ZM27.902 21.04C27.582 21.424 27.134 21.84 26.494 21.84C25.694 21.84 25.15 21.296 25.15 20.048C25.15 18.096 26.91 17.456 27.902 16.016V21.04ZM49.5985 4.88C47.7105 4.88 46.3025 6.288 45.7585 7.696C45.3745 5.808 44.5105 4.88 42.6865 4.88C40.7345 4.88 39.6145 6.384 39.1025 7.536V5.2H34.3025V26H39.1025V11.216C39.1025 9.68 39.5185 9.36 40.1585 9.36C40.7985 9.36 41.2145 9.68 41.2145 11.216V26H46.0145V11.536V11.216C46.0145 9.68 46.4305 9.36 47.0705 9.36C47.7105 9.36 48.1265 9.68 48.1265 11.216V26H52.9265V11.536C52.9265 7.024 52.3825 4.88 49.5985 4.88ZM61.4245 5.2V19.984C61.4245 21.52 61.0085 21.84 60.2085 21.84C59.4085 21.84 58.9925 21.52 58.9925 19.984V5.2H54.1925V19.664C54.1925 24.176 54.7365 26.32 57.6805 26.32C59.7925 26.32 60.9125 24.816 61.4245 23.664V25.424C61.4245 27.6 60.7845 27.92 59.5685 27.92H55.1525V32.4H60.8485C65.3605 32.4 66.2245 30.576 66.2245 25.424V5.2H61.4245Z" fill="white"/>
</svg>
