<svg version="1.1" id="Layer_1" xmlns="http://www.w3.org/2000/svg" x="0" y="0" viewBox="0 0 348 231" xml:space="preserve"><style>.st0{fill:#016fd0}</style><path class="st0" d="M196 148.6l-3.4-4.2v4.2h-11.1v-7.1s-1.5 1-4.8 1h-3.8v6.1h-16.8l-3-4-3 4h-27.8v-26.4h28l3 3.9 3.1-3.9H258V31.3H89.6v71l6.3-14.7h10.9l3.6 8.2v-8.2H124l2.1 6 2.1-6h60.9v3s3.2-3 8.5-3l19.8.1 3.5 8.1v-8.2h11.4l3.1 4.7v-4.7h11.5V114h-11.5l-3-4.7v4.7h-16.7l-1.7-4.2h-4.5l-1.7 4.2h-11.3c-4.5 0-7.4-2.9-7.4-2.9v2.9H172l-3.4-4.2v4.2h-63.4l-1.7-4.2H99l-1.7 4.2h-7.8v85.7H258v-52.9s-2.7 1.8-5.7 1.8H196z"/><path class="st0" d="M105.9 106.7l1.6 4h5.7l-8.5-19.8h-6.5l-8.5 19.8h5.5l1.6-4h9.1zm-4.6-11.3l2.8 6.9h-5.6l2.8-6.9zM138.4 110.6V90.8h-7.8l-4.4 12.8-4.6-12.7-7.9-.1v19.8h4.9V96l5.3 14.6h4.3l5.3-14.6v14.6zM158 95.3v-4.5h-16.2v19.8H158v-4.3h-11.2v-3.5h10.9v-4.2h-10.9v-3.3zM178.8 97.2c0-4.2-3.3-6.4-6.9-6.4h-11v19.8h4.9v-7h2.1l5.9 7h6l-6.5-7.3c2.7-.2 5.5-2.5 5.5-6.1zm-7.3 2.2h-5.7v-4.2h5.7c1.4 0 2.3 1.1 2.3 2.1 0 1.4-1.3 2.1-2.3 2.1zM180.8 90.8h5.1v19.8h-5.1zM188.2 100.8c0 5.7 3.2 9.8 8.5 9.8h1.1l2.1-4.3h-1.3c-3.2 0-5.3-1.6-5.3-5.4 0-3.2 1.9-5.3 4.6-5.3h5.7v-4.7h-5.5c-6.7-.1-9.9 4.1-9.9 9.9zM205.6 110.6l1.6-4h9.1l1.6 4h5.7L215 90.8h-6.5l-8.5 19.8h5.6zm6.1-15.2l2.8 6.9h-5.6l2.8-6.9zM237.3 110.6h6.1V90.8h-5v12.5l-8-12.5h-6.3v19.8h5V97.9zM141.8 129.9v-4.4h-16.1v19.8h16.1V141h-11.1v-3.6h10.9v-4.1h-10.9v-3.4zM220.9 129.9v-4.4h-16.1v19.8h16.1V141h-11.1v-3.6h10.8v-4.1h-10.8v-3.4zM158.1 125.5l-4.8 6.2-4.8-6.2h-6.2l8 10-7.9 9.8h6.2l4.5-6.1 4.7 6.1h6.2l-7.9-9.9 8-9.9zM164.6 125.5v19.8h5.1V139h5.2c4.4 0 7.7-2.3 7.7-6.9 0-3.8-2.6-6.7-7.1-6.7h-10.9zm13 6.7c0 1.3-1 2.3-2.5 2.3h-5.5v-4.6h5.5c1.5 0 2.5.9 2.5 2.3zM189.7 145.3v-7h2.1l5.9 7h6l-6.5-7.3c2.7-.2 5.4-2.5 5.4-6.1 0-4.2-3.3-6.4-6.9-6.4h-11v19.8h5zm0-15.4h5.7c1.4 0 2.3 1.1 2.3 2.1 0 1.3-1.3 2.1-2.3 2.1h-5.7v-4.2zM233.1 141h-9.9v4.3h10.5c4.4 0 6.5-2.8 6.5-6.3 0-3.2-1.9-5.7-6.2-5.7h-4.7c-1.2 0-1.8-.9-1.8-1.7 0-.8.5-1.6 2.1-1.6h8.3l2.1-4.5h-9.6c-5.8 0-7.8 3.1-7.8 6.2 0 3.6 2.2 5.9 6.1 5.9h4.5c1.5 0 2.1.8 2.1 1.7-.1.9-.7 1.7-2.2 1.7zM247.7 129.9h8.3l2.1-4.5h-9.6c-5.8 0-7.8 3.1-7.8 6.2 0 3.6 2.2 5.9 6.1 5.9h4.5c1.5 0 2.1.8 2.1 1.7 0 .9-.6 1.7-2.1 1.7h-9.9v4.3h10.5c4.4 0 6.5-2.8 6.5-6.3 0-3.2-1.9-5.7-6.2-5.7h-4.7c-1.2 0-1.8-.9-1.8-1.7 0-.7.5-1.6 2-1.6z"/></svg>