<svg xmlns="http://www.w3.org/2000/svg" viewBox="0 0 348 231"><path d="M98 79c-2.8 3.3-7.3 5.9-11.8 5.6-.6-4.5 1.6-9.3 4.2-12.2 2.8-3.4 7.7-5.8 11.7-6 .5 4.6-1.3 9.2-4.1 12.6m4.1 6.5c-6.5-.4-12.1 3.7-15.1 3.7-3.1 0-7.9-3.5-13-3.4-6.7.1-12.9 3.9-16.3 9.9-7 12.1-1.8 29.9 5 39.8 3.3 4.9 7.3 10.2 12.5 10 5-.2 6.9-3.2 12.9-3.2s7.8 3.2 13 3.1c5.4-.1 8.8-4.9 12.2-9.7 3.8-5.5 5.3-10.9 5.4-11.2-.1-.1-10.5-4.1-10.6-16-.1-10 8.2-14.8 8.6-15.1-4.8-7-12.1-7.7-14.6-7.9m37.6-13.6v72.9H151v-24.9h15.7c14.3 0 24.4-9.8 24.4-24s-9.9-23.9-24-23.9l-27.4-.1zm11.3 9.6h13c9.8 0 15.4 5.2 15.4 14.5s-5.6 14.5-15.5 14.5h-13v-29zm60.7 63.9c7.1 0 13.7-3.6 16.7-9.3h.2v8.7h10.5v-36.3c0-10.5-8.4-17.3-21.4-17.3-12 0-20.9 6.9-21.2 16.3h10.2c.8-4.5 5-7.4 10.7-7.4 6.9 0 10.8 3.2 10.8 9.2v4l-14.1.8c-13.1.8-20.3 6.2-20.3 15.5 0 9.5 7.4 15.8 17.9 15.8zm3-8.7c-6 0-9.9-2.9-9.9-7.3 0-4.6 3.7-7.2 10.8-7.7l12.6-.8v4.1c0 6.9-5.8 11.7-13.5 11.7zm38.4 28c11 0 16.2-4.2 20.8-17L293.8 92h-11.5l-13.4 43h-.2l-13.3-43.1h-11.8l19.2 53.1-1 3.2c-1.7 5.5-4.5 7.6-9.5 7.6-.9 0-2.6-.1-3.3-.2v8.7c.4.3 3.2.4 4.1.4z"/></svg>