<svg version="1.1" id="Layer_1" xmlns="http://www.w3.org/2000/svg" x="0" y="0" viewBox="0 0 348 231" xml:space="preserve"><style>.st0{fill:#5f6368}.st1{fill:#4285f4}.st2{fill:#34a853}.st3{fill:#fbbc04}.st4{fill:#ea4335}</style><path class="st0" d="M166.6 114.5v31.7h-10V68h26.6c6.4-.1 12.6 2.3 17.2 6.8 4.7 4.2 7.3 10.2 7.2 16.5.1 6.3-2.5 12.4-7.2 16.6-4.7 4.4-10.4 6.7-17.2 6.7l-16.6-.1zm0-36.9v27.3h16.8c3.7.1 7.3-1.4 9.9-4 5.3-5.1 5.4-13.6.3-18.8l-.3-.3c-2.6-2.7-6.2-4.3-9.9-4.1l-16.8-.1zM230.8 90.9c7.4 0 13.3 2 17.6 6 4.3 4 6.4 9.4 6.4 16.3v33h-9.6v-7.4h-.4c-4.2 6.1-9.7 9.2-16.6 9.2-5.9 0-10.8-1.7-14.8-5.2-3.9-3.2-6-8.1-6-13.1 0-5.5 2.1-9.9 6.3-13.2 4.2-3.3 9.8-4.9 16.8-4.9 6 0 10.9 1.1 14.7 3.3v-2.3c0-3.4-1.5-6.7-4.1-8.9-2.7-2.4-6.1-3.7-9.7-3.7-5.6 0-10.1 2.4-13.3 7.1l-8.8-5.6c4.8-7.1 12-10.6 21.5-10.6zm-13 38.9c0 2.6 1.2 5 3.3 6.6 2.2 1.7 5 2.7 7.8 2.6 4.2 0 8.3-1.7 11.3-4.7 3.3-3.1 5-6.8 5-11-3.1-2.5-7.5-3.7-13.1-3.7-4.1 0-7.5 1-10.2 3-2.7 1.9-4.1 4.3-4.1 7.2zM310 92.7l-33.5 77.1h-10.4l12.4-27-22.1-50.1h10.9l15.9 38.4h.2l15.5-38.4H310z"/><path class="st1" d="M126 107.7c0-3.1-.3-6.1-.8-9.1H82.9v17.3h24.3c-1 5.6-4.2 10.5-9 13.7v11.2h14.5c8.5-7.9 13.3-19.4 13.3-33.1z"/><path class="st2" d="M82.9 151.6c12.1 0 22.3-4 29.8-10.8l-14.5-11.2c-4 2.7-9.2 4.3-15.3 4.3-11.7 0-21.7-7.9-25.2-18.5H42.8V127c7.6 15 23.1 24.6 40.1 24.6z"/><path class="st3" d="M57.7 115.3c-1.9-5.6-1.9-11.6 0-17.2V86.5H42.8c-6.4 12.7-6.4 27.6 0 40.3l14.9-11.5z"/><path class="st4" d="M82.9 79.5c6.4-.1 12.6 2.3 17.2 6.7L113 73.4c-8.1-7.6-18.9-11.8-30.1-11.7-17 0-32.5 9.6-40.1 24.7L57.7 98c3.6-10.6 13.5-18.5 25.2-18.5z"/><path class="st0" d="M166.6 114v31.7h-10V67.5h26.6c6.4-.1 12.6 2.3 17.2 6.8 4.7 4.2 7.3 10.2 7.2 16.5.1 6.3-2.5 12.4-7.2 16.6-4.7 4.4-10.4 6.7-17.2 6.7l-16.6-.1zm0-36.9v27.3h16.8c3.7.1 7.3-1.4 9.9-4 5.3-5.1 5.4-13.6.3-18.8l-.3-.3c-2.6-2.7-6.2-4.3-9.9-4.1l-16.8-.1zM230.8 90.4c7.4 0 13.3 2 17.6 6 4.3 4 6.4 9.4 6.4 16.3v33h-9.6v-7.4h-.4c-4.2 6.1-9.7 9.2-16.6 9.2-5.9 0-10.8-1.7-14.8-5.2-3.9-3.2-6-8.1-6-13.1 0-5.5 2.1-9.9 6.3-13.2 4.2-3.3 9.8-4.9 16.8-4.9 6 0 10.9 1.1 14.7 3.3v-2.3c0-3.4-1.5-6.7-4.1-8.9-2.7-2.4-6.1-3.7-9.7-3.7-5.6 0-10.1 2.4-13.3 7.1l-8.8-5.6c4.8-7.1 12-10.6 21.5-10.6zm-13 38.9c0 2.6 1.2 5 3.3 6.6 2.2 1.7 5 2.7 7.8 2.6 4.2 0 8.3-1.7 11.3-4.7 3.3-3.1 5-6.8 5-11-3.1-2.5-7.5-3.7-13.1-3.7-4.1 0-7.5 1-10.2 3-2.7 1.9-4.1 4.3-4.1 7.2zM310 92.2l-33.5 77.1h-10.4l12.4-27-22.1-50.1h10.9l15.9 38.4h.2l15.5-38.4H310z"/><path class="st1" d="M126 107.2c0-3.1-.3-6.1-.8-9.1H82.9v17.3h24.3c-1 5.6-4.2 10.5-9 13.7v11.2h14.5c8.5-7.9 13.3-19.4 13.3-33.1z"/><path class="st2" d="M82.9 151.1c12.1 0 22.3-4 29.8-10.8L98.2 129c-4 2.7-9.2 4.3-15.3 4.3-11.7 0-21.7-7.9-25.2-18.5H42.8v11.6c7.6 15.1 23.1 24.7 40.1 24.7z"/><path class="st3" d="M57.7 114.8c-1.9-5.6-1.9-11.6 0-17.2V86H42.8c-6.4 12.7-6.4 27.6 0 40.3l14.9-11.5z"/><path class="st4" d="M82.9 79c6.4-.1 12.6 2.3 17.2 6.7L113 72.9c-8.1-7.6-18.9-11.8-30.1-11.7-17 0-32.5 9.6-40.1 24.7l14.9 11.6C61.3 86.9 71.2 79 82.9 79z"/></svg>