<svg xmlns="http://www.w3.org/2000/svg" viewBox="0 0 348 231"><path d="M78.3 81.9H58.7c-1.3 0-2.5 1-2.7 2.3l-8 50.3c-.1.9.5 1.7 1.4 1.9H59c1.3 0 2.5-1 2.7-2.3l2.1-13.6c.2-1.3 1.3-2.3 2.7-2.3h6.2c12.9 0 20.4-6.2 22.3-18.6.9-5.4 0-9.7-2.5-12.7-2.7-3.2-7.7-5-14.2-5zm2.2 18.4c-1.1 7-6.4 7-11.6 7h-3L68 94.2c.1-.8.8-1.4 1.6-1.4H71c3.5 0 6.9 0 8.6 2 1 1.2 1.3 3 .9 5.5zm56.3-.2h-9.4c-.8 0-1.5.6-1.6 1.4l-.4 2.6-.7-1c-2-2.9-6.6-3.9-11.1-3.9-10.4 0-19.2 7.9-21 18.9-.9 5.5.4 10.8 3.5 14.4 2.9 3.4 7 4.8 11.8 4.8 8.4 0 13-5.4 13-5.4l-.4 2.6c-.1.9.5 1.7 1.4 1.9h8.8c1.3 0 2.5-1 2.7-2.3l5.1-32.1c.1-.9-.5-1.7-1.3-1.9h-.4zm-13 18.2c-.9 5.4-5.2 9-10.6 9-2.7 0-4.9-.9-6.3-2.5-1.4-1.6-1.9-4-1.5-6.6.8-5.3 5.2-9 10.5-9 2.7 0 4.8.9 6.3 2.6 1.4 1.6 2 3.9 1.6 6.5zm63-18.2h-9.4c-.9 0-1.7.4-2.3 1.2l-13 19.2-5.5-18.4c-.3-1.2-1.4-1.9-2.6-1.9h-9.3c-.9 0-1.6.7-1.6 1.6 0 .2 0 .4.1.5l10.4 30.5-9.8 13.8c-.5.7-.3 1.8.4 2.3.3.2.6.3.9.3h9.4c.9 0 1.7-.4 2.2-1.2l31.4-45.3c.5-.7.3-1.8-.4-2.3-.2-.2-.6-.3-.9-.3z" fill="#253b80"/><path d="M218 81.9h-19.6c-1.3 0-2.5 1-2.7 2.3l-7.9 50.3c-.1.9.5 1.7 1.4 1.9h10.4c.9 0 1.7-.7 1.9-1.6l2.2-14.2c.2-1.3 1.3-2.3 2.7-2.3h6.2c12.9 0 20.4-6.2 22.3-18.6.9-5.4 0-9.7-2.5-12.7-2.9-3.3-7.8-5.1-14.4-5.1zm2.3 18.4c-1.1 7-6.4 7-11.6 7h-3l2.1-13.1c.1-.8.8-1.4 1.6-1.4h1.4c3.5 0 6.9 0 8.6 2 1 1.2 1.3 3 .9 5.5zm56.3-.2h-9.4c-.8 0-1.5.6-1.6 1.4l-.4 2.6-.7-1c-2-2.9-6.6-3.9-11.1-3.9-10.4 0-19.2 7.9-20.9 18.9-.9 5.5.4 10.8 3.5 14.4 2.9 3.4 7 4.8 11.8 4.8 8.4 0 13-5.4 13-5.4l-.4 2.6c-.1.9.5 1.7 1.4 1.9h8.8c1.3 0 2.5-1 2.7-2.3l5.1-32.1c.1-.9-.5-1.7-1.4-1.9h-.4zm-13.1 18.2c-.9 5.4-5.2 9-10.6 9-2.7 0-4.9-.9-6.3-2.5-1.4-1.6-1.9-4-1.5-6.6.9-5.3 5.2-9 10.5-9 2.7 0 4.8.9 6.3 2.6 1.5 1.6 2 3.9 1.6 6.5zm24.2-35l-8 51.2c-.1.9.5 1.7 1.4 1.9h8.4c1.3 0 2.5-1 2.7-2.3l7.9-50.2c.1-.9-.5-1.7-1.4-1.9h-9.4c-.8-.1-1.5.5-1.6 1.3z" fill="#179bd7"/></svg>