<svg xmlns="http://www.w3.org/2000/svg" xmlns:xlink="http://www.w3.org/1999/xlink" viewBox="0 0 348 231"><g transform="matrix(4.98469 0 0 -4.98469 -1803.82 503.202)"><defs><path id="a" d="M397.7 80.9c0-2.4 2.2-3.8 3.8-4.6 1.7-.8 2.3-1.4 2.3-2.1 0-1.1-1.4-1.6-2.6-1.7-2.2 0-3.5.6-4.5 1.1l-.8-3.7c1-.5 2.9-.9 4.9-.9 4.6 0 7.6 2.3 7.6 5.8 0 4.5-6.2 4.7-6.1 6.7 0 .6.6 1.3 1.9 1.4.6.1 2.4.1 4.3-.8l.8 3.6c-1.1.4-2.4.8-4.1.8-4.4 0-7.5-2.3-7.5-5.6m18.9 5.3c-.8 0-1.5-.5-1.9-1.2l-6.6-15.7h4.6l.9 2.5h5.6l.5-2.5h4l-3.5 16.9h-3.6m.6-4.6l1.3-6.4h-3.6l2.3 6.4m-25.1 4.6l-3.6-16.9h4.4l3.6 16.9h-4.4m-6.4 0l-4.6-11.5-1.8 9.8c-.2 1.1-1.1 1.7-2 1.7h-7.4l-.1-.5c1.5-.3 3.3-.9 4.3-1.4.6-.3.8-.7 1-1.5l3.5-13.5h4.6l7.1 16.9h-4.6"/></defs><clipPath id="b"><use xlink:href="#a" overflow="visible"/></clipPath><g clip-path="url(#b)"><g transform="translate(351.611 96.896)"><linearGradient id="c" gradientUnits="userSpaceOnUse" x1="-154.989" y1="-169.482" x2="-154.447" y2="-169.482" gradientTransform="scale(447.2655 -447.2655) rotate(-20.218 398.013 -519.52)"><stop offset="0" stop-color="#222357"/><stop offset="1" stop-color="#254aa5"/></linearGradient><path d="M12.4-12.5L65.8 7.2l12.1-33-53.3-19.6" fill="url(#c)"/></g></g></g></svg>